<?xml version="1.0" encoding="UTF-8" standalone="no"?>
<!-- Created with Inkscape (http://www.inkscape.org/) -->

<svg
   xmlns:dc="http://purl.org/dc/elements/1.1/"
   xmlns:cc="http://creativecommons.org/ns#"
   xmlns:rdf="http://www.w3.org/1999/02/22-rdf-syntax-ns#"
   xmlns:svg="http://www.w3.org/2000/svg"
   xmlns="http://www.w3.org/2000/svg"
   xmlns:sodipodi="http://sodipodi.sourceforge.net/DTD/sodipodi-0.dtd"
   xmlns:inkscape="http://www.inkscape.org/namespaces/inkscape"
   width="210mm"
   height="297mm"
   viewBox="0 0 744.09448819 1052.3622047"
   id="svg2"
   version="1.1"
   inkscape:version="0.91 r13725"
   sodipodi:docname="emon.svg">
  <defs
     id="defs4" />
  <sodipodi:namedview
     id="base"
     pagecolor="#ffffff"
     bordercolor="#666666"
     borderopacity="1.0"
     inkscape:pageopacity="0.0"
     inkscape:pageshadow="2"
     inkscape:zoom="1.979899"
     inkscape:cx="238.20771"
     inkscape:cy="665.83339"
     inkscape:document-units="px"
     inkscape:current-layer="layer1"
     showgrid="false"
     inkscape:window-width="1916"
     inkscape:window-height="1155"
     inkscape:window-x="4"
     inkscape:window-y="0"
     inkscape:window-maximized="1">
    <inkscape:grid
       type="xygrid"
       id="grid4203" />
  </sodipodi:namedview>
  <metadata
     id="metadata7">
    <rdf:RDF>
      <cc:Work
         rdf:about="">
        <dc:format>image/svg+xml</dc:format>
        <dc:type
           rdf:resource="http://purl.org/dc/dcmitype/StillImage" />
        <dc:title></dc:title>
      </cc:Work>
    </rdf:RDF>
  </metadata>
  <g
     inkscape:label="Layer 1"
     inkscape:groupmode="layer"
     id="layer1">
    <g
       id="g4478"
       transform="matrix(1.1767435,0,0,1.1777975,44.838745,-55.243174)">
      <path
         sodipodi:nodetypes="sssss"
         inkscape:connector-curvature="0"
         id="path4454"
         d="m 288.70085,377.79395 c 0,2.20245 -3.80906,3.98791 -8.50776,3.98791 -4.6987,0 -7.56245,-1.47267 -7.56245,-3.67513 -1e-5,-2.20246 3.12148,-5.10231 9.61062,-3.20597 3.67905,1.07513 6.4596,0.69072 6.45959,2.89319 z"
         style="opacity:1;fill:#ffffff;fill-opacity:1;stroke:#000000;stroke-width:1.2741338;stroke-linecap:round;stroke-linejoin:round;stroke-miterlimit:4;stroke-dasharray:none;stroke-dashoffset:0;stroke-opacity:1" />
      <path
         inkscape:connector-curvature="0"
         id="path4460"
         d="m 285.32926,350.81692 -5.04164,14.38774 8.35021,11.72915"
         style="fill:none;fill-rule:evenodd;stroke:#000000;stroke-width:1.2741338;stroke-linecap:butt;stroke-linejoin:miter;stroke-miterlimit:4;stroke-dasharray:none;stroke-opacity:1" />
    </g>
    <g
       id="g4474"
       transform="matrix(1.1767435,0,0,1.1777975,42.485258,-55.243174)">
      <path
         sodipodi:nodetypes="sssss"
         inkscape:connector-curvature="0"
         id="path4457"
         d="m 310.7265,376.55847 c 0,1.90016 -2.8894,2.48833 -6.14449,3.44055 -4.81148,1.4075 -5.06333,-0.62136 -6.1445,-2.18944 0,0 3.69629,-5.00444 7.0898,-5.00444 3.39351,0 5.19919,1.85317 5.19919,3.75333 z"
         style="opacity:1;fill:#ffffff;fill-opacity:1;stroke:#000000;stroke-width:1.2741338;stroke-linecap:round;stroke-linejoin:round;stroke-miterlimit:4;stroke-dasharray:none;stroke-dashoffset:0;stroke-opacity:1" />
      <path
         inkscape:connector-curvature="0"
         id="path4462"
         d="m 297.83882,351.00458 8.3502,12.98025 -7.24735,13.29303"
         style="fill:none;fill-rule:evenodd;stroke:#000000;stroke-width:1.2741338;stroke-linecap:butt;stroke-linejoin:miter;stroke-miterlimit:4;stroke-dasharray:none;stroke-opacity:1" />
    </g>
    <g
       id="g4500"
       transform="translate(100.21429,13.928571)">
      <path
         inkscape:connector-curvature="0"
         id="path4482"
         d="m 272.17722,319.47923 -14.12535,-16.10038 22.62938,-20.70049"
         style="fill:none;fill-rule:evenodd;stroke:#000000;stroke-width:1.5;stroke-linecap:butt;stroke-linejoin:miter;stroke-miterlimit:4;stroke-dasharray:none;stroke-opacity:1" />
      <path
         inkscape:connector-curvature="0"
         id="path4484"
         d="m 291.34733,279.65954 24.79143,21.99426 -7.49509,16.53165"
         style="fill:none;fill-rule:evenodd;stroke:#000000;stroke-width:1.5;stroke-linecap:butt;stroke-linejoin:miter;stroke-miterlimit:4;stroke-dasharray:none;stroke-opacity:1" />
      <ellipse
         style="opacity:1;fill:#ffffff;fill-opacity:1;stroke:#000000;stroke-width:1.5004313;stroke-linecap:round;stroke-linejoin:round;stroke-miterlimit:4;stroke-dasharray:none;stroke-dashoffset:0;stroke-opacity:1"
         id="ellipse4488"
         cx="324.18088"
         cy="246.24066"
         rx="3.2466726"
         ry="4.9620404"
         transform="matrix(0.99479515,0.10189512,-0.13555968,0.99076918,0,0)" />
      <ellipse
         transform="matrix(0.8778012,0.47902511,-0.48098979,0.8767262,0,0)"
         ry="6.83248"
         rx="3.8892982"
         cy="109.1646"
         cx="382.36292"
         id="path4486"
         style="opacity:1;fill:#ffffff;fill-opacity:1;stroke:#000000;stroke-width:1.50000191;stroke-linecap:round;stroke-linejoin:round;stroke-miterlimit:4;stroke-dasharray:none;stroke-dashoffset:0;stroke-opacity:1" />
    </g>
    <path
       sodipodi:nodetypes="sssccsccsccscczsccccsccsccsccszccz"
       inkscape:connector-curvature="0"
       id="path4506"
       d="m 383.1557,321.93052 c -10.74901,0 -19.65235,10.08551 -19.65235,22.60547 0,12.51997 8.90334,22.60548 19.65235,22.60547 0.33465,0 0.6672,-0.01 0.99804,-0.0293 0.003,1.5e-4 0.005,-1.5e-4 0.008,0 0.32953,0.0192 0.66085,0.0293 0.99414,0.0293 0.33334,0 0.66457,-0.0102 0.99414,-0.0293 0.004,2.3e-4 0.008,-2.3e-4 0.0117,0 0.32956,0.0191 0.66079,0.0293 0.99414,0.0293 0.33329,0 0.66461,-0.0101 0.99414,-0.0293 0.003,1.5e-4 0.005,-1.5e-4 0.008,0 0.33084,0.0193 0.66339,0.0293 0.99805,0.0293 9.18102,0 16.9956,-7.36651 19.08593,-17.31445 l -12.85351,0 c -1.52295,4.53011 -3.99828,9.3332 -9.23047,9.12304 -5.23219,-0.21016 -10.09766,-7.41548 -10.09766,-14.41406 0,-0.56682 0.0374,-1.12333 0.0918,-1.67383 l 20.00781,0 9.83985,0 2.75,0 c -0.75228,-11.73175 -9.32891,-20.93164 -19.59375,-20.93164 -0.33466,0 -0.66721,0.01 -0.99805,0.0293 -0.003,-1.5e-4 -0.005,1.5e-4 -0.008,0 -0.32953,-0.0192 -0.66085,-0.0293 -0.99414,-0.0293 -0.33335,0 -0.66458,0.0102 -0.99414,0.0293 -0.004,-2.2e-4 -0.008,2.3e-4 -0.0117,0 -0.32957,-0.0191 -0.6608,-0.0293 -0.99414,-0.0293 -0.33329,0 -0.66461,0.0101 -0.99414,0.0293 -0.003,1.5e-4 -0.005,-1.5e-4 -0.008,0 -0.33084,-0.0193 -0.66339,-0.0293 -0.99804,-0.0293 z m 3.00195,8.19141 c 3.61557,1.2e-4 6.41175,3.39895 8.19531,6.74023 l -16.40039,0 c 1.78715,-3.34146 4.58951,-6.74035 8.20508,-6.74023 z"
       style="color:#000000;font-style:normal;font-variant:normal;font-weight:normal;font-stretch:normal;font-size:medium;line-height:normal;font-family:sans-serif;text-indent:0;text-align:start;text-decoration:none;text-decoration-line:none;text-decoration-style:solid;text-decoration-color:#000000;letter-spacing:normal;word-spacing:normal;text-transform:none;direction:ltr;block-progression:tb;writing-mode:lr-tb;baseline-shift:baseline;text-anchor:start;white-space:normal;clip-rule:nonzero;display:inline;overflow:visible;visibility:visible;opacity:1;isolation:auto;mix-blend-mode:normal;color-interpolation:sRGB;color-interpolation-filters:linearRGB;solid-color:#000000;solid-opacity:1;fill:#ff8101;fill-opacity:1;fill-rule:nonzero;stroke:#000000;stroke-width:1.5;stroke-linecap:round;stroke-linejoin:round;stroke-miterlimit:4;stroke-dasharray:none;stroke-dashoffset:0;stroke-opacity:1;color-rendering:auto;image-rendering:auto;shape-rendering:auto;text-rendering:auto;enable-background:accumulate" />
    <path
       style="color:#000000;font-style:normal;font-variant:normal;font-weight:normal;font-stretch:normal;font-size:medium;line-height:normal;font-family:sans-serif;text-indent:0;text-align:start;text-decoration:none;text-decoration-line:none;text-decoration-style:solid;text-decoration-color:#000000;letter-spacing:normal;word-spacing:normal;text-transform:none;direction:ltr;block-progression:tb;writing-mode:lr-tb;baseline-shift:baseline;text-anchor:start;white-space:normal;clip-rule:nonzero;display:inline;overflow:visible;visibility:visible;opacity:1;isolation:auto;mix-blend-mode:normal;color-interpolation:sRGB;color-interpolation-filters:linearRGB;solid-color:#000000;solid-opacity:1;fill:#ff8101;fill-opacity:1;fill-rule:nonzero;stroke:#000000;stroke-width:1.5;stroke-linecap:round;stroke-linejoin:round;stroke-miterlimit:4;stroke-dasharray:none;stroke-dashoffset:0;stroke-opacity:1;color-rendering:auto;image-rendering:auto;shape-rendering:auto;text-rendering:auto;enable-background:accumulate"
       d="m 387.1557,321.93052 c -10.74901,0 -19.65235,10.08551 -19.65235,22.60547 0,12.51997 8.90334,22.60548 19.65235,22.60547 0.33465,0 0.6672,-0.01 0.99804,-0.0293 0.003,1.5e-4 0.005,-1.5e-4 0.008,0 0.32953,0.0192 0.66085,0.0293 0.99414,0.0293 0.33334,0 0.66457,-0.0102 0.99414,-0.0293 0.004,2.3e-4 0.008,-2.3e-4 0.0117,0 0.32956,0.0191 0.66079,0.0293 0.99414,0.0293 0.33329,0 0.66461,-0.0101 0.99414,-0.0293 0.003,1.5e-4 0.005,-1.5e-4 0.008,0 0.33084,0.0193 0.66339,0.0293 0.99805,0.0293 9.18102,0 16.9956,-7.36651 19.08593,-17.31445 l -12.85351,0 c -1.52295,4.53011 -3.99828,9.3332 -9.23047,9.12304 -5.23219,-0.21016 -10.09766,-7.41548 -10.09766,-14.41406 0,-0.56682 0.0374,-1.12333 0.0918,-1.67383 l 20.00781,0 9.83985,0 2.75,0 c -0.75228,-11.73175 -9.32891,-20.93164 -19.59375,-20.93164 -0.33466,0 -0.66721,0.01 -0.99805,0.0293 -0.003,-1.5e-4 -0.005,1.5e-4 -0.008,0 -0.32953,-0.0192 -0.66085,-0.0293 -0.99414,-0.0293 -0.33335,0 -0.66458,0.0102 -0.99414,0.0293 -0.004,-2.2e-4 -0.008,2.3e-4 -0.0117,0 -0.32957,-0.0191 -0.6608,-0.0293 -0.99414,-0.0293 -0.33329,0 -0.66461,0.0101 -0.99414,0.0293 -0.003,1.5e-4 -0.005,-1.5e-4 -0.008,0 -0.33084,-0.0193 -0.66339,-0.0293 -0.99804,-0.0293 z m 3.00195,8.19141 c 3.61557,1.2e-4 6.41175,3.39895 8.19531,6.74023 l -16.40039,0 c 1.78715,-3.34146 4.58951,-6.74035 8.20508,-6.74023 z"
       id="ellipse4270"
       inkscape:connector-curvature="0"
       sodipodi:nodetypes="sssccsccsccscczsccccsccsccsccszccz" />
    <path
       sodipodi:nodetypes="sssss"
       inkscape:connector-curvature="0"
       id="path4378"
       d="m 193.92857,371.16078 c 0,10.65121 -18.41824,19.79079 -18.41824,19.79079 -8.76179,-0.52288 -9.91237,-0.35687 -10.84209,-16.5078 -0.70196,-12.19415 4.59009,-20.29586 13.36747,-20.29586 8.77738,0 15.89286,8.63451 15.89286,17.01287 z"
       style="opacity:0.678;fill:none;fill-opacity:1;stroke:#000000;stroke-width:3;stroke-linecap:round;stroke-linejoin:round;stroke-miterlimit:4;stroke-dasharray:none;stroke-dashoffset:0;stroke-opacity:1" />
    <path
       sodipodi:nodetypes="sssss"
       inkscape:connector-curvature="0"
       id="path4380"
       d="m 222.68345,383.18134 c -3.54434,10.04421 -14.11503,17.77286 -18.45819,15.08179 -6.87438,-4.25945 -7.65212,-10.7422 -4.10778,-20.7864 3.54433,-10.04419 10.34777,-20.26699 16.94295,-15.58686 0,0 9.16735,11.24727 5.62302,21.29147 z"
       style="opacity:0.678;fill:none;fill-opacity:1;stroke:#000000;stroke-width:3;stroke-linecap:round;stroke-linejoin:round;stroke-miterlimit:4;stroke-dasharray:none;stroke-dashoffset:0;stroke-opacity:1" />
    <ellipse
       style="opacity:0.678;fill:#000000;fill-opacity:1;stroke:none;stroke-width:3;stroke-linecap:round;stroke-linejoin:round;stroke-miterlimit:4;stroke-dasharray:none;stroke-dashoffset:0;stroke-opacity:1"
       id="path4386"
       cx="362.9079"
       cy="217.62982"
       rx="13.258252"
       ry="16.41498"
       transform="matrix(0.83682395,0.54747207,-0.54747207,0.83682395,0,0)" />
    <path
       style="opacity:0.678;fill:none;fill-opacity:1;stroke:#000000;stroke-width:3;stroke-linecap:round;stroke-linejoin:round;stroke-miterlimit:4;stroke-dasharray:none;stroke-dashoffset:0;stroke-opacity:1"
       d="m 193.92857,291.16078 c 0,10.65121 -18.41824,19.79079 -18.41824,19.79079 -8.76179,-0.52288 -9.91237,-0.35687 -10.84209,-16.5078 -0.70196,-12.19415 4.59009,-20.29586 13.36747,-20.29586 8.77738,0 15.89286,8.63451 15.89286,17.01287 z"
       id="path4388"
       inkscape:connector-curvature="0"
       sodipodi:nodetypes="sssss" />
    <path
       style="opacity:0.678;fill:#000000;fill-opacity:1;stroke:none;stroke-width:3;stroke-linecap:round;stroke-linejoin:round;stroke-miterlimit:4;stroke-dasharray:none;stroke-dashoffset:0;stroke-opacity:1"
       d="m 187.51953,285.26562 a 13.258252,16.41498 33.193759 0 0 -14.07031,8.2754 13.258252,16.41498 33.193759 0 0 -2.21875,15.5332 c 1.02205,0.15871 2.37234,0.24406 3.96094,0.33984 0.50628,-0.2565 4.41491,-2.25488 8.60156,-5.54297 4.46391,-3.50583 8.63476,-8.24994 8.63476,-12.71093 0,-1.73041 -0.36261,-3.48035 -0.99414,-5.15625 a 13.258252,16.41498 33.193759 0 0 -3.91406,-0.73829 z"
       id="path4403"
       inkscape:connector-curvature="0" />
    <path
       style="opacity:0.678;fill:none;fill-opacity:1;stroke:#000000;stroke-width:3;stroke-linecap:round;stroke-linejoin:round;stroke-miterlimit:4;stroke-dasharray:none;stroke-dashoffset:0;stroke-opacity:1"
       d="m 222.68345,303.18134 c -3.54434,10.04421 -14.11503,17.77286 -18.45819,15.08179 -6.87438,-4.25945 -7.65212,-10.7422 -4.10778,-20.7864 3.54433,-10.04419 10.34777,-20.26699 16.94295,-15.58686 0,0 9.16735,11.24727 5.62302,21.29147 z"
       id="path4405"
       inkscape:connector-curvature="0"
       sodipodi:nodetypes="sssss" />
    <path
       inkscape:connector-curvature="0"
       id="path4407"
       d="m 221.23977,375.26562 a 13.736773,16.746201 40.73147 0 0 -14.8723,8.2754 13.736773,16.746201 40.73147 0 0 -2.34521,15.5332 c 1.0803,0.15871 2.50756,0.24406 4.1867,0.33984 0.53514,-0.2565 4.66656,-2.25488 9.09184,-5.54297 4.71835,-3.50583 9.12693,-8.24994 9.12693,-12.71093 0,-1.73041 -0.38328,-3.48035 -1.0508,-5.15625 a 13.736773,16.746201 40.73147 0 0 -4.13716,-0.73829 z"
       style="opacity:0.678;fill:#000000;fill-opacity:1;stroke:none;stroke-width:3;stroke-linecap:round;stroke-linejoin:round;stroke-miterlimit:4;stroke-dasharray:none;stroke-dashoffset:0;stroke-opacity:1" />
    <path
       style="opacity:0.678;fill:#000000;fill-opacity:1;stroke:none;stroke-width:3;stroke-linecap:round;stroke-linejoin:round;stroke-miterlimit:4;stroke-dasharray:none;stroke-dashoffset:0;stroke-opacity:1"
       d="m 221.24023,295.26562 a 13.736773,16.746201 40.73147 0 0 -14.87304,8.2754 13.736773,16.746201 40.73147 0 0 -3.24414,12.07031 c 0.55755,0.47569 1.17926,0.93497 1.89257,1.37695 0.58096,0.35992 1.58318,0.459 2.99219,0.0312 1.40901,-0.42774 3.11595,-1.36344 4.81836,-2.70117 3.40483,-2.67546 6.78673,-6.94204 8.44336,-11.63672 0.85304,-2.41741 0.84666,-4.95838 0.40625,-7.38672 a 13.736773,16.746201 40.73147 0 0 -0.43555,-0.0293 z"
       id="path4419"
       inkscape:connector-curvature="0" />
    <path
       style="opacity:0.678;fill:#000000;fill-opacity:1;stroke:none;stroke-width:3.0999999;stroke-linecap:round;stroke-linejoin:round;stroke-miterlimit:4;stroke-dasharray:none;stroke-dashoffset:0;stroke-opacity:1"
       d="m 258.03516,192.59766 c 9.79389,0 17.44336,9.30656 17.44336,18.5625 0,6.21903 -5.05089,11.37893 -9.80079,15.10937 -4.74989,3.73044 -9.47851,6.07031 -9.47851,6.07031 a 1.550155,1.550155 0 0 1 -0.78125,0.15821 c -2.18357,-0.13031 -3.94353,-0.20473 -5.51367,-0.56446 -1.57015,-0.35972 -3.01776,-1.11786 -4.00196,-2.45898 -1.9684,-2.68224 -2.31426,-6.82901 -2.78125,-14.94141 -0.36495,-6.33985 0.8043,-11.74088 3.38086,-15.66211 2.57657,-3.92122 6.66762,-6.27343 11.53321,-6.27343 z"
       id="path4445" />
    <g
       id="g4450"
       transform="matrix(0.52734121,-0.08110065,0.08110065,0.52734121,223.77011,195.23074)">
      <path
         inkscape:connector-curvature="0"
         id="path4421"
         d="m 258.03516,252.59766 c -4.86559,0 -8.95664,2.35221 -11.53321,6.27343 -2.57656,3.92123 -3.74581,9.32226 -3.38086,15.66211 0.46699,8.1124 0.81285,12.25917 2.78125,14.94141 0.9842,1.34112 2.43181,2.09926 4.00196,2.45898 1.57014,0.35973 3.3301,0.43415 5.51367,0.56446 a 1.550155,1.550155 0 0 0 0.78125,-0.15821 c 0,0 4.72862,-2.33987 9.47851,-6.07031 4.7499,-3.73044 9.80079,-8.89034 9.80079,-15.10937 0,-9.25594 -7.64947,-18.5625 -17.44336,-18.5625 z m 0,3.09961 c 5.9648,0 11.22056,4.70677 13.33984,10.28906 a 13.258252,16.41498 33.193759 0 0 -3.85547,-0.72071 13.258252,16.41498 33.193759 0 0 -14.07031,8.2754 13.258252,16.41498 33.193759 0 0 -2.23828,15.47851 c -0.21355,-0.0337 -0.43253,-0.066 -0.61328,-0.10742 -1.1389,-0.26093 -1.68043,-0.56988 -2.19532,-1.27149 -1.02976,-1.40321 -1.72476,-5.24662 -2.1875,-13.28515 -0.337,-5.8543 0.78864,-10.60308 2.87696,-13.78125 2.08831,-3.17817 5.03156,-4.87695 8.94336,-4.87695 z m 35.22656,3.49609 c -0.52679,0.0254 -1.04705,0.11125 -1.55274,0.25391 -2.02274,0.57061 -3.79831,1.91853 -5.40429,3.66406 -3.21197,3.49105 -5.82763,8.68964 -7.64844,13.84961 -1.81883,5.15433 -2.60283,9.52893 -1.91797,13.35156 0.68486,3.82263 2.95571,6.9662 6.66992,9.26758 1.60745,0.99599 3.57084,0.93833 5.48438,0.35742 1.91354,-0.58091 3.88843,-1.7042 5.81836,-3.2207 3.85985,-3.03301 7.54203,-7.65909 9.43359,-13.01953 3.94424,-11.1775 -5.88281,-22.78711 -5.88281,-22.78711 a 1.550155,1.550155 0 0 0 -0.30469,-0.28516 c -0.98428,-0.69847 -2.04015,-1.13467 -3.10351,-1.32617 -0.53169,-0.0958 -1.06501,-0.13085 -1.5918,-0.10547 z m 0.61523,3.06445 c 0.14516,0.007 0.29128,0.0243 0.4375,0.0508 0.5354,0.097 1.09495,0.37323 1.69336,0.77344 0.3332,0.43394 4.47112,5.93295 5.61524,12.20899 a 13.736773,16.746201 40.73147 0 0 -0.38282,-0.0254 13.736773,16.746201 40.73147 0 0 -14.87304,8.2754 13.736773,16.746201 40.73147 0 0 -3.25,12.00195 c -1.88817,-1.62326 -2.91306,-3.47149 -3.32617,-5.77735 -0.53652,-2.99465 0.0636,-6.88356 1.78906,-11.77343 1.72351,-4.88423 4.28123,-9.81989 7.00586,-12.78125 1.36231,-1.48068 2.74629,-2.4375 3.96484,-2.78125 0.45696,-0.12891 0.89069,-0.19301 1.32617,-0.17188 z"
         style="color:#000000;font-style:normal;font-variant:normal;font-weight:normal;font-stretch:normal;font-size:medium;line-height:normal;font-family:sans-serif;text-indent:0;text-align:start;text-decoration:none;text-decoration-line:none;text-decoration-style:solid;text-decoration-color:#000000;letter-spacing:normal;word-spacing:normal;text-transform:none;direction:ltr;block-progression:tb;writing-mode:lr-tb;baseline-shift:baseline;text-anchor:start;white-space:normal;clip-rule:nonzero;display:inline;overflow:visible;visibility:visible;opacity:1;isolation:auto;mix-blend-mode:normal;color-interpolation:sRGB;color-interpolation-filters:linearRGB;solid-color:#000000;solid-opacity:1;fill:#000000;fill-opacity:1;fill-rule:nonzero;stroke:none;stroke-width:3.0999999;stroke-linecap:round;stroke-linejoin:round;stroke-miterlimit:4;stroke-dasharray:none;stroke-dashoffset:0;stroke-opacity:1;color-rendering:auto;image-rendering:auto;shape-rendering:auto;text-rendering:auto;enable-background:accumulate" />
      <path
         id="path4443"
         d="m 258.03516,255.69727 c -3.9118,0 -6.85505,1.69878 -8.94336,4.87695 -2.08832,3.17817 -3.21396,7.92695 -2.87696,13.78125 0.46274,8.03853 1.15774,11.88194 2.1875,13.28515 0.51489,0.70162 1.05642,1.01056 2.19532,1.27149 0.18075,0.0414 0.39973,0.0737 0.61328,0.10742 a 13.258252,16.41498 33.193759 0 1 2.23828,-15.47851 13.258252,16.41498 33.193759 0 1 14.07031,-8.2754 13.258252,16.41498 33.193759 0 1 3.85547,0.72071 c -2.11928,-5.58229 -7.37504,-10.28906 -13.33984,-10.28906 z m 35.84179,6.56054 c -0.43548,-0.0211 -0.86921,0.043 -1.32617,0.17188 -1.21855,0.34375 -2.60253,1.30057 -3.96484,2.78125 -2.72463,2.96136 -5.28235,7.89702 -7.00586,12.78125 -1.72546,4.88987 -2.32558,8.77879 -1.78906,11.77343 0.41311,2.30586 1.438,4.15409 3.32617,5.77735 a 13.736773,16.746201 40.73147 0 1 3.25,-12.00195 13.736773,16.746201 40.73147 0 1 14.87304,-8.2754 13.736773,16.746201 40.73147 0 1 0.38282,0.0254 c -1.14412,-6.27604 -5.28204,-11.77505 -5.61524,-12.20899 -0.59841,-0.40021 -1.15796,-0.67644 -1.69336,-0.77344 -0.14622,-0.0265 -0.29234,-0.0438 -0.4375,-0.0508 z"
         style="opacity:1;fill:#ffffff;fill-opacity:1;stroke:none;stroke-width:3.0999999;stroke-linecap:round;stroke-linejoin:round;stroke-miterlimit:4;stroke-dasharray:none;stroke-dashoffset:0;stroke-opacity:1"
         inkscape:connector-curvature="0" />
    </g>
    <path
       style="opacity:0.678;fill:#000000;fill-opacity:1;stroke:none;stroke-width:3.0999999;stroke-linecap:round;stroke-linejoin:round;stroke-miterlimit:4;stroke-dasharray:none;stroke-dashoffset:0;stroke-opacity:1"
       d="m 293.26172,199.19336 c 0.52679,-0.0254 1.06011,0.01 1.5918,0.10547 1.06336,0.1915 2.11923,0.6277 3.10351,1.32617 a 1.550155,1.550155 0 0 1 0.30469,0.28516 c 0,0 9.82705,11.60961 5.88281,22.78711 -1.89156,5.36044 -5.57374,9.98652 -9.43359,13.01953 -1.92993,1.5165 -3.90482,2.63979 -5.81836,3.2207 -1.91354,0.58091 -3.87693,0.63857 -5.48438,-0.35742 -3.71421,-2.30138 -5.98506,-5.44495 -6.66992,-9.26758 -0.68486,-3.82263 0.0991,-8.19723 1.91797,-13.35156 1.82081,-5.15997 4.43647,-10.35856 7.64844,-13.84961 1.60598,-1.74553 3.38155,-3.09345 5.40429,-3.66406 0.50569,-0.14266 1.02595,-0.22851 1.55274,-0.25391 z"
       id="path4441" />
  </g>
  <g
     inkscape:groupmode="layer"
     id="layer2"
     inkscape:label="export"
     style="opacity:0">
    <rect
       style="opacity:0.89;fill:#ff8101;fill-opacity:1;stroke:none;stroke-width:1.5;stroke-linecap:round;stroke-linejoin:round;stroke-miterlimit:4;stroke-dasharray:none;stroke-dashoffset:0;stroke-opacity:1"
       id="rect4527"
       width="114.04061"
       height="114.04061"
       x="332.14215"
       y="283.12503"
       inkscape:export-filename="/Users/yuki.kokubun/Desktop/emon.png"
       inkscape:export-xdpi="394.59613"
       inkscape:export-ydpi="394.59613" />
  </g>
</svg>
